PathFileType	4	(X/Y/Z)	./resultDataOpenSim/trcMotMarkerGrf/sub10/qtm-12-06.trc
DataRate	CameraRate	NumFrames	NumMarkers	Units	OrigDataRate	OrigDataStartFrame	OrigNumFrames
250.000000	250.000000	14	24	m	250.000000	242	483
Frame#	Time	L.Toe.Tip			R.Toe.Tip			L.Ankle.Lat			R.Ankle.Lat			L.Ankle.Med			R.Ankle.Med			L.Heel			R.Heel			L.Knee.Lat			R.Knee.Lat			L.Knee.Med			R.Knee.Med			L.Thigh.Upper			R.Thigh.Upper			L.ASIS			R.ASIS			V.Sacral			L.Acromium			R.Acromium			C7			L.Elbow			R.Elbow			L.Wrist.Lat			R.Wrist.Lat
		X1	Y1	Z1	X2	Y2	Z2	X3	Y3	Z3	X4	Y4	Z4	X5	Y5	Z5	X6	Y6	Z6	X7	Y7	Z7	X8	Y8	Z8	X9	Y9	Z9	X10	Y10	Z10	X11	Y11	Z11	X12	Y12	Z12	X13	Y13	Z13	X14	Y14	Z14	X15	Y15	Z15	X16	Y16	Z16	X17	Y17	Z17	X18	Y18	Z18	X19	Y19	Z19	X20	Y20	Z20	X21	Y21	Z21	X22	Y22	Z22	X23	Y23	Z23	X24	Y24	Z24

242	0.964	-0.026239967	0.016975277	-0.12072831	0.39015	0.087467159	0.070565076	-0.15854997	0.047205115	-0.14190216	0.24765237	0.092614625	0.055984842	-0.14332293	0.070017132	-0.056825319	0.29488421	0.1226441	-0.013883797	-0.22617181	0.023415929	-0.096096772	0.22145911	0.062414067	-0.0054387416	-0.020691851	0.4102062	-0.17940197	0.26183859	0.4913621	0.094055929	-0.023065918	0.39123118	-0.058607926	0.30327748	0.51207498	-0.025059789	0.037842631	0.8049637	-0.24638209	0.022713433	0.81967691	0.13197818	0.092078717	0.91283982	-0.17773241	0.094278815	0.91652301	0.066374008	-0.10287819	0.92548921	-0.059891135	0.069038251	1.3757397	-0.2134099	0.012345959	1.3807875	0.10954209	-0.043027797	1.4115538	-0.071322312	-0.0058954479	1.0396103	-0.26743975	-0.10690754	1.0563636	0.15785996	0.19646953	0.86339113	-0.3254009	-0.032948656	0.84732863	0.26309902
243	0.968	-0.02618232	0.016939822	-0.1208061	0.41047158	0.088633007	0.069820787	-0.15826262	0.047656516	-0.14178369	0.26762994	0.090537431	0.056142635	-0.14300075	0.070589211	-0.056722921	0.31381494	0.12214669	-0.013606527	-0.22599729	0.024215783	-0.095744777	0.24195564	0.059926097	-0.0048371544	-0.020233143	0.41058656	-0.17961814	0.26813746	0.49054778	0.093967092	-0.02223093	0.39154346	-0.058784874	0.30929276	0.51159477	-0.024945904	0.041612331	0.80471503	-0.24646315	0.029996253	0.82056304	0.13232857	0.097238639	0.91243423	-0.17815169	0.1010741	0.91669449	0.06600548	-0.098352764	0.92623046	-0.057948987	0.074933735	1.3759579	-0.21339695	0.018460134	1.3806658	0.1095608	-0.036988354	1.4115206	-0.071408399	0.00078551082	1.039529	-0.26651864	-0.10285061	1.0573396	0.15746292	0.20720126	0.86559206	-0.32508434	-0.032138829	0.84758815	0.26316434
244	0.972	-0.026141552	0.016925551	-0.12086374	0.43056425	0.090017474	0.069013838	-0.15780847	0.048075313	-0.14178128	0.2874133	0.08877835	0.056411912	-0.14265243	0.071184472	-0.056614113	0.33244619	0.12185763	-0.013289741	-0.22583513	0.025074695	-0.095445124	0.26219034	0.057834341	-0.0042617088	-0.019699426	0.41097735	-0.17980549	0.27436617	0.4894916	0.093872508	-0.021298173	0.39187347	-0.058930714	0.31524711	0.51081792	-0.02486837	0.045347336	0.80444378	-0.24658093	0.037365801	0.82135841	0.13265058	0.10236061	0.9119851	-0.17861125	0.10796074	0.91679489	0.065619097	-0.093389414	0.92673286	-0.056218375	0.080839354	1.3761111	-0.21338648	0.024601438	1.3804895	0.10958642	-0.030979501	1.4114207	-0.07165898	0.0074794341	1.0394463	-0.26556637	-0.098680732	1.0582806	0.1569477	0.21791052	0.86779648	-0.32472596	-0.031191653	0.84786066	0.26317143
245	0.976	-0.026108395	0.016936575	-0.12090743	0.45037699	0.091584669	0.068123857	-0.15727951	0.04852522	-0.14189858	0.30693718	0.087363058	0.056818326	-0.14227717	0.071791508	-0.056498746	0.35072161	0.12175744	-0.012944286	-0.22569665	0.025983626	-0.095232847	0.28209723	0.05612406	-0.0037108709	-0.019082209	0.41136662	-0.17994939	0.28053764	0.48819383	0.093765488	-0.020268944	0.39220591	-0.059063853	0.32114339	0.50975743	-0.024832493	0.049018274	0.80415617	-0.24674897	0.044714781	0.82202162	0.13288472	0.10741479	0.91149312	-0.17912797	0.11498683	0.91684053	0.065239896	-0.087983097	0.9269852	-0.0547559	0.086751972	1.3762038	-0.21337848	0.030775374	1.3802593	0.10962238	-0.025020699	1.4112813	-0.071877169	0.014216368	1.0393398	-0.26461295	-0.094601438	1.0592041	0.15642334	0.22859041	0.87000296	-0.32433289	-0.030115744	0.84814823	0.26312907
246	0.98	-0.02607766	0.016955089	-0.12093677	0.46982643	0.093366052	0.067120308	-0.15681347	0.049073496	-0.14204956	0.32616663	0.086258379	0.057361602	-0.14188163	0.072406391	-0.056379843	0.36859048	0.12185063	-0.012579244	-0.22557191	0.026927666	-0.095075606	0.30160873	0.054736408	-0.0031142241	-0.01836937	0.41174766	-0.18004684	0.2866658	0.48666045	0.093645721	-0.019139948	0.3925351	-0.059204263	0.32698268	0.50842904	-0.024844678	0.052631297	0.80386424	-0.24695066	0.052075401	0.82256782	0.13304089	0.1124431	0.91097844	-0.17967927	0.12216707	0.9168426	0.064869665	-0.082313146	0.9270698	-0.053430568	0.092656385	1.3762404	-0.21336584	0.03698001	1.3799703	0.10966839	-0.019082354	1.4111324	-0.071896298	0.021036745	1.0391843	-0.26369496	-0.090764798	1.0601108	0.15598895	0.23923415	0.87221501	-0.32390591	-0.028969139	0.84844144	0.26302372
247	0.984	-0.026047313	0.016940572	-0.12091211	0.4888107	0.095514284	0.066018855	-0.15646182	0.049712804	-0.1421273	0.34510558	0.085382499	0.058030353	-0.14147629	0.073031288	-0.056262203	0.38599721	0.12215721	-0.012201634	-0.22543781	0.027893099	-0.094904504	0.32067659	0.053608597	-0.0024052265	-0.017553341	0.41211351	-0.18011084	0.2927759	0.48490811	0.093521447	-0.017898418	0.39286933	-0.0593555	0.33276588	0.50684706	-0.024912652	0.056223184	0.80357606	-0.24718484	0.059495274	0.82301756	0.13314503	0.11750984	0.91046801	-0.18021951	0.12948858	0.91680036	0.064492043	-0.076437128	0.92702462	-0.05216193	0.098539218	1.3762207	-0.21333499	0.04320668	1.3796164	0.10972211	-0.013096935	1.4109727	-0.071782489	0.027944262	1.0389677	-0.2628373	-0.087131128	1.0609874	0.15561857	0.24983823	0.87443514	-0.32344309	-0.027813808	0.84872778	0.26284074
248	0.988	-0.026010134	0.016838081	-0.12076223	0.50724253	0.098207547	0.064876525	-0.15618189	0.050387447	-0.1420959	0.3637435	0.084671502	0.058797541	-0.14105841	0.073666646	-0.056144595	0.40287453	0.1226756	-0.011816336	-0.22527893	0.028873011	-0.094680721	0.33927385	0.052688653	-0.0015474412	-0.016622543	0.41245741	-0.18015932	0.29891655	0.48298123	0.093411434	-0.016537451	0.39321342	-0.059476056	0.33849757	0.50502883	-0.0250392	0.059828194	0.80328963	-0.24746787	0.066939228	0.82335569	0.13318561	0.12264164	0.90997509	-0.18072086	0.13692677	0.91670386	0.064083974	-0.070301441	0.92683759	-0.050957669	0.1044012	1.3761406	-0.21327942	0.04944611	1.3791955	0.10978367	-0.0070222957	1.4107602	-0.071706218	0.034895325	1.0386894	-0.26205066	-0.083545682	1.0618153	0.15518861	0.26040254	0.87666106	-0.32294291	-0.026621556	0.84901122	0.2626018
249	0.992	-0.025941514	0.016633249	-0.12048068	0.5250662	0.10149869	0.063719608	-0.15591628	0.051061613	-0.14199161	0.38196069	0.084156777	0.059632858	-0.14060473	0.074307852	-0.056019268	0.41916038	0.12337525	-0.011425585	-0.22508703	0.029868376	-0.094401707	0.35738499	0.05193087	-0.00053188699	-0.015555651	0.41277795	-0.18019919	0.305139	0.48094629	0.093343985	-0.015092887	0.39353646	-0.059464363	0.34418816	0.50299922	-0.025218859	0.063431097	0.80299628	-0.2478129	0.074304395	0.8235362	0.1331139	0.12777757	0.90948184	-0.18122011	0.14445872	0.91654686	0.063625652	-0.063839285	0.9264822	-0.04986589	0.11025618	1.3759939	-0.21320736	0.055695546	1.3787147	0.1098568	-0.00089102224	1.4104446	-0.071701552	0.041833915	1.0383563	-0.26132345	-0.079902066	1.062581	0.15461477	0.27092669	0.87888841	-0.32240153	-0.025263416	0.84931528	0.26236598
250	0.996	-0.025804406	0.0164166	-0.1202254	0.54224931	0.1052963	0.062526603	-0.15563845	0.051730756	-0.14186097	0.39956711	0.083930683	0.060521757	-0.14008679	0.074950207	-0.055876552	0.43482222	0.12422484	-0.011028664	-0.22485114	0.030885403	-0.094071826	0.37499632	0.051297259	0.00062929438	-0.014343023	0.4130754	-0.18022511	0.31145702	0.47885836	0.093343419	-0.013655544	0.39375782	-0.059183978	0.34984789	0.50078768	-0.025447827	0.066979647	0.80268983	-0.24822094	0.081537596	0.82353176	0.13290408	0.13281151	0.90895497	-0.18179311	0.1520657	0.9163359	0.063108375	-0.057172153	0.92599483	-0.048846955	0.1161179	1.3757777	-0.21312497	0.061955968	1.3781877	0.10994226	0.0052049343	1.4100156	-0.071640786	0.048826586	1.0379693	-0.26066128	-0.076182052	1.0632816	0.15394098	0.28140505	0.88111601	-0.32181463	-0.023660034	0.84965237	0.26217174
251	1	-0.025586895	0.016320638	-0.12020628	0.55877435	0.10944278	0.061280981	-0.15534823	0.052404492	-0.14172613	0.41645574	0.084038	0.0614693	-0.13949861	0.075592957	-0.055712937	0.44986018	0.12520023	-0.010617836	-0.22457642	0.031931726	-0.093714516	0.39209077	0.050767768	0.0019110031	-0.012998011	0.41334426	-0.1802294	0.31785404	0.47675823	0.093418793	-0.012267365	0.39380988	-0.058591313	0.35548487	0.49842587	-0.025723762	0.070474198	0.80237979	-0.24866148	0.08876837	0.8233867	0.13262142	0.13772328	0.90838706	-0.18245405	0.15973247	0.91608413	0.062532471	-0.050845694	0.92553879	-0.04764107	0.12198198	1.3754979	-0.21302996	0.068226616	1.3776268	0.11003525	0.011193228	1.4095074	-0.07140011	0.056264198	1.0375016	-0.26021462	-0.07240611	1.0639224	0.15328143	0.29183032	0.8833468	-0.32118036	-0.021940726	0.84998992	0.2619777
252	1.004	-0.025329593	0.016374734	-0.12045724	0.57464446	0.11376539	0.060006472	-0.15504922	0.053099611	-0.14159297	0.43264945	0.084443846	0.062490163	-0.13887298	0.076233176	-0.055540637	0.46429397	0.12626386	-0.010178127	-0.22430511	0.033014865	-0.093392024	0.4086455	0.050343927	0.0032864155	-0.011540068	0.41357617	-0.180209	0.32433475	0.47470185	0.09357568	-0.010765011	0.39374938	-0.057915683	0.36110368	0.49594752	-0.026033385	0.074025045	0.80209514	-0.24905444	0.096302328	0.82321535	0.1324187	0.14259491	0.907803	-0.18313569	0.16744538	0.91579945	0.061893379	-0.045664616	0.92530697	-0.045897469	0.12782675	1.3751638	-0.21291907	0.074502405	1.3770362	0.11013547	0.017087864	1.4089542	-0.071002036	0.064848352	1.036897	-0.26032137	-0.06860081	1.0645174	0.15269901	0.30220488	0.88558523	-0.32049246	-0.020335822	0.85026922	0.26170238
253	1.008	-0.02509474	0.016494491	-0.1208299	0.58988801	0.11809775	0.058751521	-0.15473794	0.053826314	-0.14146455	0.44822787	0.085069113	0.063587559	-0.13825667	0.076865121	-0.055379886	0.47815459	0.12736413	-0.0096937225	-0.22407173	0.034139941	-0.093147122	0.42463497	0.050034089	0.004741296	-0.0099851588	0.41376888	-0.18017102	0.33093112	0.47274084	0.093817557	-0.0088606599	0.39375422	-0.05756878	0.36669423	0.4933841	-0.026357515	0.077734886	0.80185212	-0.24932979	0.10440872	0.82311969	0.13243548	0.14748598	0.9072223	-0.1837812	0.17518883	0.91548261	0.061179921	-0.041989287	0.92535202	-0.043458994	0.13363891	1.3747799	-0.21278437	0.080773278	1.3764122	0.1102521	0.022954242	1.4083641	-0.070569873	0.07503787	1.0361188	-0.26123457	-0.064785268	1.0650871	0.15217907	0.31253577	0.88783362	-0.319742	-0.018892489	0.85046735	0.26132213
254	1.012	-0.024916991	0.016594253	-0.12116842	0.60454282	0.12230145	0.057546975	-0.15440774	0.054578629	-0.14134258	0.46326754	0.085821576	0.064739569	-0.13766493	0.077492592	-0.055237683	0.49147819	0.12846022	-0.0091601169	-0.2238516	0.035308044	-0.092947423	0.44003357	0.049837068	0.0062779287	-0.0083485762	0.41392813	-0.18013346	0.33766023	0.47088113	0.094123718	-0.0064466811	0.39395236	-0.057751464	0.37224103	0.49076453	-0.026684749	0.081530656	0.80161495	-0.24948114	0.11312145	0.82310542	0.13270035	0.15238682	0.90663923	-0.18438917	0.18294651	0.91513273	0.060387737	-0.039235548	0.92557731	-0.040388716	0.1394252	1.3743455	-0.21262123	0.087032165	1.3757489	0.11039651	0.028830236	1.4077276	-0.070190444	0.08630738	1.0352074	-0.26271959	-0.060956795	1.0656364	0.15168168	0.32281611	0.89008718	-0.31893277	-0.017452902	0.85062039	0.26088355
255	1.016	-0.024795265	0.016646742	-0.12140598	0.61861891	0.12628608	0.056371535	-0.15405472	0.055350384	-0.14122474	0.47782612	0.086622752	0.065909774	-0.13707802	0.078129245	-0.055105866	0.5042844	0.1295259	-0.0086015268	-0.22359816	0.03651984	-0.092740569	0.45480911	0.049742036	0.0078957409	-0.0066397443	0.4140617	-0.1801107	0.34451428	0.46911046	0.094455762	-0.0037020653	0.39427493	-0.058254046	0.37776676	0.4881264	-0.027011173	0.085194227	0.80131085	-0.24947243	0.12225036	0.82308963	0.13312757	0.15727442	0.90603915	-0.18498041	0.19070989	0.91474989	0.059522102	-0.036192749	0.92581913	-0.036898077	0.14519821	1.37386	-0.21243938	0.093279493	1.3750428	0.11057579	0.034712057	1.4070354	-0.069870732	0.097326181	1.0342611	-0.2641267	-0.057090231	1.06614	0.15117365	0.33302519	0.89233566	-0.31808187	-0.015889414	0.85078309	0.26044167
